<svg width="51" height="51" viewBox="0 0 51 51" fill="none" xmlns="http://www.w3.org/2000/svg">
<path d="M37.6585 13.0306H33.5361C33.5361 8.47528 29.8465 4.78571 25.2912 4.78571C20.7359 4.78571 17.0464 8.47528 17.0464 13.0306H12.9239C10.6566 13.0306 8.80151 14.8856 8.80151 17.153V41.8875C8.80151 44.1549 10.6566 46.01 12.9239 46.01H37.6585C39.9258 46.01 41.7809 44.1549 41.7809 41.8875V17.153C41.7809 14.8856 39.9258 13.0306 37.6585 13.0306ZM21.1688 21.2754C21.1688 22.4091 20.2412 23.3366 19.1076 23.3366C17.9739 23.3366 17.0464 22.4091 17.0464 21.2754V17.153H21.1688V21.2754ZM25.2912 8.90813C27.5585 8.90813 29.4136 10.7632 29.4136 13.0306H21.1688C21.1688 10.7632 23.0239 8.90813 25.2912 8.90813ZM33.5361 21.2754C33.5361 22.4091 32.6085 23.3366 31.4748 23.3366C30.3412 23.3366 29.4136 22.4091 29.4136 21.2754V17.153H33.5361V21.2754Z" fill="white"/>
</svg>
