<svg width="64" height="65" viewBox="0 0 64 65" fill="none" xmlns="http://www.w3.org/2000/svg">
<path d="M48.0007 16.3275H42.6937C42.6937 10.4632 37.9439 5.71344 32.0796 5.71344C26.2153 5.71344 21.4656 10.4632 21.4656 16.3275H16.1585C13.2397 16.3275 10.8515 18.7157 10.8515 21.6345V53.4767C10.8515 56.3956 13.2397 58.7837 16.1585 58.7837H48.0007C50.9196 58.7837 53.3077 56.3956 53.3077 53.4767V21.6345C53.3077 18.7157 50.9196 16.3275 48.0007 16.3275ZM26.7726 26.9416C26.7726 28.401 25.5785 29.5951 24.1191 29.5951C22.6596 29.5951 21.4656 28.401 21.4656 26.9416V21.6345H26.7726V26.9416ZM32.0796 11.0205C34.9985 11.0205 37.3866 13.4086 37.3866 16.3275H26.7726C26.7726 13.4086 29.1608 11.0205 32.0796 11.0205ZM42.6937 26.9416C42.6937 28.401 41.4996 29.5951 40.0402 29.5951C38.5807 29.5951 37.3866 28.401 37.3866 26.9416V21.6345H42.6937V26.9416Z" fill="#64A1F4"/>
</svg>
