<svg width="56" height="56" viewBox="0 0 56 56" fill="none" xmlns="http://www.w3.org/2000/svg">
<g clip-path="url(#clip0_867_3858)">
<path d="M27.8384 14.1718C30.3402 14.1718 32.3872 16.2188 32.3872 18.7207C32.3872 21.2226 30.3402 23.2696 27.8384 23.2696C25.3365 23.2696 23.2895 21.2226 23.2895 18.7207C23.2895 16.2188 25.3365 14.1718 27.8384 14.1718ZM27.8384 36.9162C33.9793 36.9162 41.0301 39.8502 41.485 41.4651H14.1917C14.7148 39.8275 21.7201 36.9162 27.8384 36.9162ZM27.8384 9.62292C22.8118 9.62292 18.7406 13.6942 18.7406 18.7207C18.7406 23.7472 22.8118 27.8185 27.8384 27.8185C32.8649 27.8185 36.9361 23.7472 36.9361 18.7207C36.9361 13.6942 32.8649 9.62292 27.8384 9.62292ZM27.8384 32.3673C21.7656 32.3673 9.64282 35.4151 9.64282 41.4651V46.014H46.0339V41.4651C46.0339 35.4151 33.9111 32.3673 27.8384 32.3673Z" fill="#C6C4C4"/>
</g>
<defs>
<clipPath id="clip0_867_3858">
<rect width="54.5866" height="54.5866" fill="white" transform="translate(0.545044 0.525146)"/>
</clipPath>
</defs>
</svg>
