<svg width="56" height="56" viewBox="0 0 56 56" fill="none" xmlns="http://www.w3.org/2000/svg">
<g clip-path="url(#clip0_867_3847)">
<path d="M43.9571 7.34844H34.4499C33.4947 4.71009 30.9928 2.79956 28.036 2.79956C25.0792 2.79956 22.5774 4.71009 21.6221 7.34844H12.1149C9.61304 7.34844 7.56604 9.39544 7.56604 11.8973V43.7395C7.56604 46.2414 9.61304 48.2884 12.1149 48.2884H43.9571C46.459 48.2884 48.506 46.2414 48.506 43.7395V11.8973C48.506 9.39544 46.459 7.34844 43.9571 7.34844ZM28.036 7.34844C29.287 7.34844 30.3105 8.37194 30.3105 9.62288C30.3105 10.8738 29.287 11.8973 28.036 11.8973C26.7851 11.8973 25.7616 10.8738 25.7616 9.62288C25.7616 8.37194 26.7851 7.34844 28.036 7.34844ZM32.5849 39.1906H16.6638V34.6417H32.5849V39.1906ZM39.4082 30.0929H16.6638V25.544H39.4082V30.0929ZM39.4082 20.9951H16.6638V16.4462H39.4082V20.9951Z" fill="#C6C4C4"/>
</g>
<defs>
<clipPath id="clip0_867_3847">
<rect width="54.5866" height="54.5866" fill="white" transform="translate(0.742676 0.525146)"/>
</clipPath>
</defs>
</svg>
