<svg width="50" height="51" viewBox="0 0 50 51" fill="none" xmlns="http://www.w3.org/2000/svg">
<path d="M24.9846 46.0099C27.2519 46.0099 29.107 44.1548 29.107 41.8875H20.8621C20.8621 44.1548 22.7172 46.0099 24.9846 46.0099ZM37.3518 33.6427V23.3366C37.3518 17.0087 33.9921 11.7114 28.0764 10.3097V8.9081C28.0764 7.1973 26.6954 5.81628 24.9846 5.81628C23.2738 5.81628 21.8928 7.1973 21.8928 8.9081V10.3097C15.9977 11.7114 12.6173 16.9881 12.6173 23.3366V33.6427L8.49487 37.7651V39.8263H41.4743V37.7651L37.3518 33.6427ZM33.2294 35.7039H16.7397V23.3366C16.7397 18.2248 19.8522 14.0611 24.9846 14.0611C30.117 14.0611 33.2294 18.2248 33.2294 23.3366V35.7039Z" fill="white"/>
</svg>
