<svg width="29" height="29" viewBox="0 0 29 29" fill="none" xmlns="http://www.w3.org/2000/svg">
<path fill-rule="evenodd" clip-rule="evenodd" d="M11.8558 0.593628C5.49658 0.593628 0.341431 5.74878 0.341431 12.108C0.341431 18.4672 5.49658 23.6223 11.8558 23.6223C14.4421 23.6223 16.8293 22.7696 18.7515 21.33L25.497 28.0754C26.1393 28.7178 27.1808 28.7178 27.8232 28.0754C28.4656 27.433 28.4656 26.3915 27.8232 25.7492L21.0778 19.0037C22.5174 17.0815 23.3701 14.6943 23.3701 12.108C23.3701 5.74878 18.215 0.593628 11.8558 0.593628ZM3.63125 12.108C3.63125 7.5657 7.3135 3.88344 11.8558 3.88344C16.3981 3.88344 20.0803 7.5657 20.0803 12.108C20.0803 16.6503 16.3981 20.3325 11.8558 20.3325C7.3135 20.3325 3.63125 16.6503 3.63125 12.108Z" fill="url(#paint0_linear_3702_536)"/>
<defs>
<linearGradient id="paint0_linear_3702_536" x1="-27.6221" y1="-25.2727" x2="-41.2513" y2="17.5057" gradientUnits="userSpaceOnUse">
<stop stop-color="#3AB648"/>
<stop offset="1" stop-color="#526430"/>
</linearGradient>
</defs>
</svg>
