<svg width="43" height="43" viewBox="0 0 43 43" fill="none" xmlns="http://www.w3.org/2000/svg">
<path fill-rule="evenodd" clip-rule="evenodd" d="M13.0094 5.93866C16.2109 5.93866 18.901 8.12831 19.6637 11.0917H33.6216V14.527H19.6637C18.901 17.4904 16.2109 19.6801 13.0094 19.6801C9.21485 19.6801 6.13873 16.604 6.13873 12.8094C6.13873 9.01478 9.21485 5.93866 13.0094 5.93866ZM13.0094 16.2447C14.9067 16.2447 16.4448 14.7067 16.4448 12.8094C16.4448 10.9121 14.9067 9.37401 13.0094 9.37401C11.1121 9.37401 9.57409 10.9121 9.57409 12.8094C9.57409 14.7067 11.1121 16.2447 13.0094 16.2447Z" fill="white"/>
<path fill-rule="evenodd" clip-rule="evenodd" d="M30.1862 35.1392C26.9847 35.1392 24.2947 32.9495 23.532 29.9861H9.57409V26.5508H23.532C24.2947 23.5874 26.9847 21.3977 30.1862 21.3977C33.9808 21.3977 37.0569 24.4739 37.0569 28.2685C37.0569 32.063 33.9808 35.1392 30.1862 35.1392ZM30.1862 31.7038C32.0835 31.7038 33.6216 30.1657 33.6216 28.2685C33.6216 26.3712 32.0835 24.8331 30.1862 24.8331C28.2889 24.8331 26.7509 26.3712 26.7509 28.2685C26.7509 30.1657 28.2889 31.7038 30.1862 31.7038Z" fill="white"/>
</svg>
